<?xml version="1.0" standalone="no"?>
<!DOCTYPE svg PUBLIC "-//W3C//DTD SVG 20010904//EN"
 "http://www.w3.org/TR/2001/REC-SVG-20010904/DTD/svg10.dtd">
<svg version="1.0" xmlns="http://www.w3.org/2000/svg"
 width="4096.000000pt" height="4096.000000pt" viewBox="0 0 4096.000000 4096.000000"
 preserveAspectRatio="xMidYMid meet">
<metadata>
Created by potrace 1.14, written by Peter Selinger 2001-2017
</metadata>
<g transform="translate(0.000000,4096.000000) scale(0.100000,-0.100000)"
fill="#000000" stroke="none">
<path d="M19985 35725 c-255 -54 -430 -225 -473 -463 -6 -33 -9 -618 -8 -1525
l3 -1472 24 -70 c38 -109 66 -155 139 -226 118 -116 265 -172 450 -173 291 0
502 147 586 408 l23 71 0 1480 c1 1467 1 1481 -20 1555 -59 216 -201 348 -438
410 -64 17 -216 19 -286 5z"/>
<path d="M26547 34014 c-1 -1 -24 -4 -52 -7 -105 -12 -221 -66 -303 -141 -49
-45 -105 -130 -227 -341 -70 -121 -144 -249 -165 -285 -31 -52 -398 -689 -470
-814 -9 -17 -50 -87 -90 -156 -40 -69 -84 -145 -97 -170 -14 -25 -38 -65 -53
-90 -15 -25 -74 -126 -130 -225 -57 -99 -142 -247 -190 -330 -130 -226 -150
-278 -155 -405 -5 -100 7 -162 45 -247 52 -114 125 -201 230 -273 246 -168
559 -161 745 18 83 80 80 76 300 457 144 251 155 269 165 285 6 8 13 22 17 30
4 8 61 107 126 220 65 113 132 228 148 256 15 28 58 103 95 165 37 63 80 139
97 169 16 30 34 61 39 67 6 7 24 39 40 70 16 32 36 65 44 74 8 8 14 18 14 21
0 3 48 88 106 189 59 101 117 202 129 224 13 22 46 81 75 130 29 50 66 113 82
140 26 45 54 102 80 160 19 45 36 154 32 220 -15 304 -289 563 -622 588 -29 2
-53 3 -55 1z"/>
<path d="M13525 33995 c-204 -51 -372 -180 -456 -349 -22 -45 -42 -92 -45
-106 -23 -101 -24 -184 -4 -272 12 -50 61 -164 94 -218 18 -29 97 -165 131
-225 13 -22 80 -139 150 -260 70 -121 177 -305 238 -410 178 -309 248 -429
257 -445 41 -67 90 -151 90 -154 0 -2 44 -80 98 -173 101 -172 274 -470 309
-533 90 -158 128 -215 183 -274 68 -73 166 -130 268 -156 58 -15 212 -11 281
7 191 50 360 183 440 347 22 45 42 95 45 111 4 17 9 41 11 55 11 49 5 156 -10
215 -15 60 -72 187 -105 235 -9 14 -28 45 -42 70 -43 78 -180 313 -205 352
-12 21 -23 40 -23 43 0 2 -18 34 -40 70 -22 36 -40 68 -40 71 0 3 -13 25 -30
49 -16 24 -30 46 -30 48 0 3 -64 114 -141 248 -78 134 -150 258 -159 274 -117
207 -650 1120 -672 1153 -67 97 -168 174 -279 213 -76 27 -236 34 -314 14z"/>
<path d="M19818 30075 c-2 -1 -61 -6 -133 -9 -71 -4 -143 -9 -160 -11 -16 -2
-61 -7 -100 -10 -38 -3 -88 -7 -110 -10 -22 -2 -65 -7 -95 -11 -74 -8 -118
-13 -160 -20 -19 -3 -48 -8 -63 -10 -55 -7 -104 -15 -217 -35 -63 -11 -128
-23 -145 -25 -33 -6 -211 -43 -235 -49 -8 -2 -53 -13 -100 -24 -248 -58 -555
-148 -793 -232 -78 -28 -146 -52 -152 -53 -5 -2 -19 -7 -30 -11 -11 -4 -65
-26 -120 -47 -55 -21 -109 -43 -120 -48 -11 -5 -48 -21 -82 -35 -35 -14 -89
-37 -120 -52 -32 -14 -92 -42 -133 -60 -141 -65 -435 -215 -454 -231 -10 -10
-19 -15 -20 -12 -3 10 -338 -189 -536 -319 -94 -61 -324 -221 -365 -253 -5 -4
-75 -58 -155 -120 -80 -61 -147 -114 -150 -118 -3 -3 -30 -25 -60 -50 -30 -25
-57 -47 -60 -50 -3 -3 -25 -23 -50 -44 -246 -215 -588 -556 -745 -746 -20 -25
-45 -53 -54 -62 -9 -9 -21 -23 -26 -30 -6 -7 -49 -60 -96 -118 -47 -58 -116
-145 -153 -195 -37 -49 -73 -97 -79 -105 -33 -40 -237 -340 -287 -420 -65
-106 -190 -312 -190 -315 0 -1 -25 -47 -56 -101 -65 -114 -234 -449 -289 -574
-21 -47 -46 -104 -56 -126 -89 -201 -281 -721 -314 -854 -2 -8 -26 -94 -53
-190 -89 -320 -143 -565 -192 -870 -6 -36 -13 -78 -16 -95 -11 -66 -13 -82
-20 -140 -3 -33 -8 -68 -9 -77 -2 -9 -7 -48 -10 -85 -4 -37 -9 -76 -11 -86 -1
-9 -6 -63 -10 -120 -3 -56 -8 -110 -10 -121 -23 -121 -22 -912 1 -1166 2 -25
6 -76 9 -115 3 -38 8 -81 10 -95 3 -14 7 -52 10 -85 12 -136 52 -403 91 -620
62 -338 204 -847 335 -1205 24 -63 48 -131 55 -150 17 -44 117 -283 158 -375
48 -106 198 -409 251 -504 l46 -84 -68 -116 c-304 -521 -542 -1162 -651 -1761
-21 -114 -37 -212 -46 -275 -3 -22 -7 -53 -10 -70 -4 -28 -10 -83 -20 -180
-27 -266 -27 -981 0 -1125 2 -8 6 -44 9 -80 34 -335 146 -860 248 -1155 97
-285 154 -431 246 -630 278 -607 651 -1145 1117 -1610 310 -309 625 -562 993
-794 62 -39 114 -71 116 -71 2 0 33 -17 67 -38 198 -120 484 -259 739 -362 58
-23 114 -45 125 -50 66 -28 487 -164 540 -174 11 -2 58 -14 105 -26 47 -12 96
-24 110 -27 13 -2 60 -12 105 -23 44 -10 114 -23 155 -30 41 -7 84 -14 95 -16
80 -16 272 -41 370 -49 28 -2 79 -7 115 -10 160 -15 467 -21 535 -10 93 15
212 71 280 132 101 91 174 247 191 407 4 34 7 62 8 63 2 2 668 3 1482 3 1172
0 1478 -3 1475 -13 -2 -6 -4 -138 -5 -291 -1 -198 -4 -280 -12 -283 -7 -2 -38
-20 -70 -39 -33 -20 -87 -51 -121 -70 l-62 -34 -45 25 c-25 14 -67 37 -93 51
-27 14 -185 106 -353 204 -374 218 -374 218 -431 246 -123 61 -279 75 -404 36
-261 -80 -455 -346 -456 -625 -1 -200 86 -359 256 -471 49 -32 76 -48 220
-128 38 -21 70 -40 72 -41 2 -3 -30 -22 -157 -95 -19 -11 -64 -36 -100 -57
-36 -21 -81 -46 -100 -57 -215 -123 -323 -305 -314 -528 7 -177 71 -324 201
-457 184 -189 445 -230 683 -107 80 42 223 123 375 215 l30 18 0 -167 c-1
-171 6 -246 27 -317 73 -246 305 -404 592 -402 293 1 516 161 586 420 22 80
23 97 24 625 1 323 6 546 12 551 5 5 65 41 133 80 l123 71 132 -76 c72 -42
156 -90 186 -107 30 -16 62 -36 71 -43 8 -8 19 -14 22 -14 10 0 221 -126 342
-205 61 -40 143 -93 182 -118 l72 -47 0 -134 c0 -153 8 -139 -109 -208 -71
-43 -508 -295 -588 -340 -245 -136 -326 -199 -389 -301 -62 -97 -75 -145 -79
-282 -2 -110 0 -127 26 -203 44 -128 105 -222 199 -307 69 -63 125 -95 226
-131 70 -26 240 -26 315 -1 53 18 154 64 195 90 27 17 80 48 147 86 l58 32 -1
-249 c-1 -272 3 -316 32 -409 76 -236 320 -394 599 -388 175 5 323 65 435 179
69 70 124 162 139 231 3 17 9 41 12 55 4 14 8 149 11 300 2 151 6 276 8 279 3
2 22 -7 42 -21 21 -13 45 -28 53 -32 8 -4 24 -12 35 -19 70 -43 197 -108 238
-121 70 -23 112 -29 197 -28 240 3 471 185 561 442 28 77 33 113 33 210 -1
114 -9 152 -50 238 -51 104 -129 184 -255 259 -101 60 -377 220 -469 271 -117
66 -341 199 -365 217 -26 20 -26 21 -26 150 0 71 4 131 8 132 5 2 58 36 118
76 205 135 866 527 890 527 4 0 63 -32 131 -71 95 -55 124 -76 125 -93 1 -11
3 -257 4 -546 2 -289 5 -536 8 -550 46 -274 270 -462 568 -477 344 -18 611
191 647 507 4 36 7 134 6 218 0 124 2 152 13 148 8 -3 89 -49 181 -103 92 -53
192 -109 222 -125 261 -132 559 -52 742 198 42 58 96 166 109 222 5 20 12 46
15 57 12 49 11 166 -2 230 -31 154 -138 292 -299 387 -44 26 -91 55 -105 63
-14 8 -78 46 -143 84 l-119 69 49 28 c26 15 81 47 121 71 40 23 75 43 77 43 2
0 20 11 39 24 143 97 237 234 261 381 15 92 -3 261 -34 323 -5 9 -15 31 -22
47 -29 66 -103 166 -164 223 -64 59 -176 122 -245 138 -19 4 -42 9 -50 11 -34
8 -167 3 -214 -8 -65 -15 -151 -54 -246 -111 -41 -24 -156 -91 -255 -148 -99
-57 -211 -122 -250 -145 -101 -60 -291 -165 -299 -165 -3 0 -36 18 -72 40 -36
22 -68 40 -70 40 -2 0 -26 14 -54 31 l-50 31 0 289 0 289 713 1 c391 0 1041 1
1444 2 l732 2 -1 -40 c-1 -61 10 -120 36 -197 88 -251 296 -388 581 -382 136
3 382 19 470 30 132 16 182 23 215 29 14 3 41 7 60 10 237 37 696 159 865 230
17 7 41 16 55 20 59 18 297 123 440 194 393 196 748 435 1070 720 83 73 315
303 396 391 70 77 244 291 292 359 25 36 49 68 53 71 13 11 200 302 257 400
70 122 212 400 205 400 -3 0 -1 6 5 13 5 6 29 57 51 112 23 55 46 109 51 120
22 53 80 216 115 325 30 93 84 290 91 330 3 14 9 39 14 55 9 30 14 54 50 255
22 125 27 156 35 235 3 33 8 69 10 80 26 136 27 745 0 960 -2 17 -6 55 -10 85
-57 505 -221 1049 -466 1545 -43 88 -85 171 -93 185 -9 14 -46 77 -83 140 -37
63 -72 122 -78 131 -5 8 -23 37 -40 63 -16 27 -36 54 -42 61 -7 8 -13 16 -13
20 0 3 -22 36 -50 73 -27 37 -64 87 -82 112 -18 25 -35 47 -38 50 -3 3 -32 39
-65 80 -189 239 -506 558 -736 741 -31 24 -73 58 -94 74 -386 306 -933 598
-1412 756 -87 29 -170 56 -184 61 -21 8 -33 27 -64 106 -390 994 -1062 1938
-1885 2647 -267 231 -639 503 -877 644 -40 24 -73 46 -74 50 0 3 -2 17 -3 31
-2 14 -7 70 -10 125 -4 55 -9 114 -11 130 -2 17 -9 77 -15 135 -13 123 -16
147 -24 197 -4 21 -9 56 -11 78 -7 52 -32 199 -50 295 -8 41 -16 86 -19 100
-13 77 -43 207 -87 380 -27 107 -52 204 -54 215 -23 99 -216 677 -255 760 -5
11 -36 85 -69 165 -199 486 -477 996 -785 1445 -114 166 -130 189 -136 195 -3
3 -25 32 -49 65 -47 64 -237 305 -266 339 -6 6 -55 63 -110 126 -153 177 -166
191 -395 420 -541 541 -1093 958 -1775 1340 -173 97 -554 282 -740 360 -93 39
-179 75 -190 80 -87 37 -343 127 -545 190 -162 51 -561 156 -630 166 -19 3
-43 7 -52 10 -9 3 -27 7 -40 9 -36 8 -229 43 -268 49 -19 3 -44 8 -55 10 -11
2 -42 7 -70 10 -27 4 -61 9 -75 11 -92 15 -289 36 -460 51 -41 3 -97 8 -125
10 -58 5 -832 13 -837 9z m-3998 -2789 c0 -2 -8 -10 -17 -17 -16 -13 -17 -12
-4 4 13 16 21 21 21 13z m12167 -6058 c-3 -8 -6 -5 -6 6 -1 11 2 17 5 13 3 -3
4 -12 1 -19z m-10 -70 c-3 -7 -5 -2 -5 12 0 14 2 19 5 13 2 -7 2 -19 0 -25z
m-14440 -210 c-3 -8 -6 -5 -6 6 -1 11 2 17 5 13 3 -3 4 -12 1 -19z m40 -210
c-3 -8 -6 -5 -6 6 -1 11 2 17 5 13 3 -3 4 -12 1 -19z m5530 -290 c-3 -8 -6 -5
-6 6 -1 11 2 17 5 13 3 -3 4 -12 1 -19z m-5400 -220 c-3 -8 -6 -5 -6 6 -1 11
2 17 5 13 3 -3 4 -12 1 -19z m16080 -1600 c-3 -8 -6 -5 -6 6 -1 11 2 17 5 13
3 -3 4 -12 1 -19z m-15637 -52 c0 -2 -8 -10 -17 -17 -16 -13 -17 -12 -4 4 13
16 21 21 21 13z m15688 -91 c-3 -3 -9 2 -12 12 -6 14 -5 15 5 6 7 -7 10 -15 7
-18z m-15927 -218 c-10 -9 -11 -8 -5 6 3 10 9 15 12 12 3 -3 0 -11 -7 -18z
m17740 -844 c13 -16 12 -17 -3 -4 -17 13 -22 21 -14 21 2 0 10 -8 17 -17z
m320 -250 c13 -16 12 -17 -3 -4 -17 13 -22 21 -14 21 2 0 10 -8 17 -17z m74
-63 c10 -11 16 -20 13 -20 -3 0 -13 9 -23 20 -10 11 -16 20 -13 20 3 0 13 -9
23 -20z m46 -47 c13 -16 12 -17 -3 -4 -17 13 -22 21 -14 21 2 0 10 -8 17 -17z
m134 -133 c10 -11 16 -20 13 -20 -3 0 -13 9 -23 20 -10 11 -16 20 -13 20 3 0
13 -9 23 -20z m50 -50 c10 -11 16 -20 13 -20 -3 0 -13 9 -23 20 -10 11 -16 20
-13 20 3 0 13 -9 23 -20z m60 -70 c10 -11 16 -20 13 -20 -3 0 -13 9 -23 20
-10 11 -16 20 -13 20 3 0 13 -9 23 -20z m45 -55 c13 -14 21 -25 18 -25 -2 0
-15 11 -28 25 -13 14 -21 25 -18 25 2 0 15 -11 28 -25z m45 -55 c10 -11 16
-20 13 -20 -3 0 -13 9 -23 20 -10 11 -16 20 -13 20 3 0 13 -9 23 -20z m80
-100 c10 -11 16 -20 13 -20 -3 0 -13 9 -23 20 -10 11 -16 20 -13 20 3 0 13 -9
23 -20z m36 -47 c13 -16 12 -17 -3 -4 -17 13 -22 21 -14 21 2 0 10 -8 17 -17z
m79 -114 c15 -28 5 -23 -15 7 -9 15 -12 23 -6 20 6 -4 16 -16 21 -27z m50 -79
c6 -11 8 -20 6 -20 -3 0 -10 9 -16 20 -6 11 -8 20 -6 20 3 0 10 -9 16 -20z
m60 -100 c6 -11 8 -20 6 -20 -3 0 -10 9 -16 20 -6 11 -8 20 -6 20 3 0 10 -9
16 -20z m30 -50 c6 -11 8 -20 6 -20 -3 0 -10 9 -16 20 -6 11 -8 20 -6 20 3 0
10 -9 16 -20z m28 -55 c-3 -3 -9 2 -12 12 -6 14 -5 15 5 6 7 -7 10 -15 7 -18z
m61 -115 c11 -24 11 -24 -3 -6 -9 11 -16 24 -16 30 0 12 5 7 19 -24z m51 -104
c0 -12 -5 -7 -19 24 -11 24 -11 24 3 6 9 -11 16 -24 16 -30z m14 -32 c3 -8 2
-12 -4 -9 -6 3 -10 10 -10 16 0 14 7 11 14 -7z m36 -79 c0 -5 -5 -3 -10 5 -5
8 -10 20 -10 25 0 6 5 3 10 -5 5 -8 10 -19 10 -25z m39 -100 c0 -5 -6 1 -14
15 -8 14 -14 30 -14 35 0 6 6 -1 14 -15 8 -14 14 -29 14 -35z m20 -60 c0 -5
-4 -3 -9 5 -5 8 -9 22 -9 30 0 16 17 -16 18 -35z m21 -50 c0 -5 -5 -3 -10 5
-5 8 -10 20 -10 25 0 6 5 3 10 -5 5 -8 10 -19 10 -25z m20 -60 c0 -5 -5 -3
-10 5 -5 8 -10 20 -10 25 0 6 5 3 10 -5 5 -8 10 -19 10 -25z m7 -37 c-3 -8 -6
-5 -6 6 -1 11 2 17 5 13 3 -3 4 -12 1 -19z m20 -70 c-3 -8 -6 -5 -6 6 -1 11 2
17 5 13 3 -3 4 -12 1 -19z m23 -62 c0 -26 -6 -18 -14 19 -5 22 -4 26 4 15 5
-8 10 -24 10 -34z m7 -48 c-3 -8 -6 -5 -6 6 -1 11 2 17 5 13 3 -3 4 -12 1 -19z
m20 -70 c-3 -8 -6 -5 -6 6 -1 11 2 17 5 13 3 -3 4 -12 1 -19z m10 -50 c-3 -7
-5 -2 -5 12 0 14 2 19 5 13 2 -7 2 -19 0 -25z m10 -50 c-3 -7 -5 -2 -5 12 0
14 2 19 5 13 2 -7 2 -19 0 -25z m10 -50 c-3 -7 -5 -2 -5 12 0 14 2 19 5 13 2
-7 2 -19 0 -25z m10 -40 c-3 -8 -6 -5 -6 6 -1 11 2 17 5 13 3 -3 4 -12 1 -19z
m11 -64 c-3 -27 -4 -26 -9 8 -3 22 -1 34 4 29 5 -5 7 -21 5 -37z m9 -71 c-3
-10 -5 -4 -5 12 0 17 2 24 5 18 2 -7 2 -21 0 -30z m10 -65 c-3 -8 -6 -5 -6 6
-1 11 2 17 5 13 3 -3 4 -12 1 -19z m7 -34 c3 -8 2 -12 -4 -9 -6 3 -10 10 -10
16 0 14 7 11 14 -7z m3 -86 c-2 -13 -4 -3 -4 22 0 25 2 35 4 23 2 -13 2 -33 0
-45z m10 -125 c-2 -16 -4 -3 -4 27 0 30 2 43 4 28 2 -16 2 -40 0 -55z m9 -68
c1 -8 -1 -17 -5 -19 -4 -3 -7 6 -7 19 0 25 8 25 12 0z m-5 -58 c-10 -9 -11 -8
-5 6 3 10 9 15 12 12 3 -3 0 -11 -7 -18z m6 -62 c0 -8 -4 -12 -9 -9 -5 3 -6
10 -3 15 9 13 12 11 12 -6z m3 -65 c0 -5 -5 -10 -11 -10 -5 0 -7 5 -4 10 3 6
8 10 11 10 2 0 4 -4 4 -10z m-7 -55 c-7 -21 -12 -19 -10 4 0 11 5 18 9 15 4
-3 5 -11 1 -19z m-6 -87 c-2 -13 -4 -3 -4 22 0 25 2 35 4 23 2 -13 2 -33 0
-45z m0 -50 c-3 -8 -6 -5 -6 6 -1 11 2 17 5 13 3 -3 4 -12 1 -19z m-10 -65
c-3 -10 -5 -2 -5 17 0 19 2 27 5 18 2 -10 2 -26 0 -35z m-17 -140 c-11 -17
-11 -17 -6 0 3 10 7 31 7 45 l2 27 4 -27 c2 -15 -1 -35 -7 -45z m0 -48 c0 -14
-4 -25 -9 -25 -4 0 -6 11 -3 25 2 14 6 25 8 25 2 0 4 -11 4 -25z m-13 -57 c-3
-8 -6 -5 -6 6 -1 11 2 17 5 13 3 -3 4 -12 1 -19z m-5 -45 c-3 -16 -7 -22 -10
-15 -4 13 4 42 11 42 2 0 2 -12 -1 -27z m-18 -97 c-3 -21 -8 -35 -11 -32 -2 2
-1 20 3 40 3 21 8 35 11 32 2 -2 1 -20 -3 -40z m-36 -156 c-12 -45 -23 -79
-25 -76 -7 6 32 156 41 156 2 0 -5 -36 -16 -80z m-7537 -73 c-10 -9 -11 -8 -5
6 3 10 9 15 12 12 3 -3 0 -11 -7 -18z m7506 -39 c-3 -8 -6 -5 -6 6 -1 11 2 17
5 13 3 -3 4 -12 1 -19z m-23 -82 c-3 -15 -8 -25 -11 -23 -2 3 -1 17 3 31 3 15
8 25 11 23 2 -3 1 -17 -3 -31z m-23 -63 c-12 -20 -14 -14 -5 12 4 9 9 14 11
11 3 -2 0 -13 -6 -23z m-14 -45 c-3 -8 -6 -5 -6 6 -1 11 2 17 5 13 3 -3 4 -12
1 -19z m-12246 -11 c-10 -9 -11 -8 -5 6 3 10 9 15 12 12 3 -3 0 -11 -7 -18z
m12232 -27 c-3 -12 -8 -19 -11 -16 -5 6 5 36 12 36 2 0 2 -9 -1 -20z m-7718 0
c-3 -5 -12 -10 -18 -10 -7 0 -6 4 3 10 19 12 23 12 15 0z m7696 -57 c-12 -20
-14 -14 -5 12 4 9 9 14 11 11 3 -2 0 -13 -6 -23z m-20 -50 c-12 -20 -14 -14
-5 12 4 9 9 14 11 11 3 -2 0 -13 -6 -23z m-20 -50 c-12 -20 -14 -14 -5 12 4 9
9 14 11 11 3 -2 0 -13 -6 -23z m-20 -46 c-10 -9 -11 -8 -5 6 3 10 9 15 12 12
3 -3 0 -11 -7 -18z m-26 -62 c-23 -47 -29 -40 -8 8 9 20 19 35 21 33 2 -3 -4
-21 -13 -41z m-50 -105 c-14 -27 -28 -50 -30 -50 -3 0 6 23 20 50 14 28 28 50
30 50 3 0 -6 -22 -20 -50z m-44 -83 c-10 -9 -11 -8 -5 6 3 10 9 15 12 12 3 -3
0 -11 -7 -18z m-12074 -9 c-3 -8 -6 -5 -6 6 -1 11 2 17 5 13 3 -3 4 -12 1 -19z
m12054 -31 c-10 -9 -11 -8 -5 6 3 10 9 15 12 12 3 -3 0 -11 -7 -18z m-65 -113
c-19 -33 -42 -68 -51 -79 -9 -11 -7 -4 4 15 12 19 33 56 48 83 14 26 28 45 30
43 2 -2 -12 -30 -31 -62z m-96 -153 c-5 -11 -15 -23 -21 -27 -6 -3 -3 5 6 20
20 30 30 35 15 7z m-62 -87 c-18 -25 -37 -48 -43 -52 -5 -3 3 12 19 34 45 60
48 64 53 64 2 0 -11 -21 -29 -46z m-70 -98 c-13 -19 -24 -33 -26 -31 -5 4 37
65 44 65 2 0 -6 -15 -18 -34z m-52 -68 c-9 -12 -16 -19 -16 -15 0 11 24 47 28
42 2 -2 -3 -14 -12 -27z m-45 -51 l-24 -22 19 27 c10 14 21 24 23 22 3 -3 -6
-15 -18 -27z m-21 -30 c0 -2 -14 -16 -32 -33 l-32 -29 25 32 c20 27 39 41 39
30z m-146 -159 c-32 -35 -93 -94 -134 -133 -42 -39 -18 -10 55 65 72 74 132
134 134 133 2 -2 -22 -31 -55 -65z m-214 -201 c0 -2 -17 -19 -37 -38 l-38 -34
34 38 c33 34 41 42 41 34z m-91 -83 c-7 -9 -40 -37 -74 -62 -72 -54 -62 -41
21 27 64 53 74 60 53 35z m-144 -114 c-3 -5 -27 -24 -53 -41 -54 -37 -46 -25
13 20 45 33 49 35 40 21z m-105 -74 c0 -2 -8 -10 -17 -17 -16 -13 -17 -12 -4
4 13 16 21 21 21 13z m-70 -52 c-8 -8 -23 -20 -34 -25 -13 -7 -9 -1 9 15 34
29 43 33 25 10z m-60 -39 c0 -2 -10 -9 -22 -15 -22 -11 -22 -10 -4 4 21 17 26
19 26 11z m-50 -30 c0 -2 -10 -9 -22 -15 -22 -11 -22 -10 -4 4 21 17 26 19 26
11z m-50 -30 c0 -2 -10 -9 -22 -15 -22 -11 -22 -10 -4 4 21 17 26 19 26 11z
m-81 -49 c-2 -2 -15 -9 -29 -15 -24 -11 -24 -11 -6 3 16 13 49 24 35 12z
m-109 -60 c0 -2 -7 -7 -16 -10 -8 -3 -12 -2 -9 4 6 10 25 14 25 6z m-40 -20
c0 -2 -7 -7 -16 -10 -8 -3 -12 -2 -9 4 6 10 25 14 25 6z m-61 -30 c-2 -2 -15
-9 -29 -15 -24 -11 -24 -11 -6 3 16 13 49 24 35 12z m-139 -66 c-8 -5 -19 -10
-25 -10 -5 0 -3 5 5 10 8 5 20 10 25 10 6 0 3 -5 -5 -10z m-363 -136 c-3 -3
-12 -4 -19 -1 -8 3 -5 6 6 6 11 1 17 -2 13 -5z m-260 -70 c-3 -3 -12 -4 -19
-1 -8 3 -5 6 6 6 11 1 17 -2 13 -5z m-180 -40 c-3 -3 -12 -4 -19 -1 -8 3 -5 6
6 6 11 1 17 -2 13 -5z m-952 -152 c-51 -44 -115 -93 -115 -88 0 6 110 96 118
96 3 0 2 -4 -3 -8z m-137 -132 c-22 -30 -35 -41 -22 -17 9 16 36 47 41 47 2 0
-6 -13 -19 -30z m-9397 -7 c13 -16 12 -17 -3 -4 -17 13 -22 21 -14 21 2 0 10
-8 17 -17z m9337 -88 c-6 -14 -13 -23 -15 -21 -5 5 15 46 22 46 3 0 -1 -11 -7
-25z m-41 -107 c-3 -8 -6 -5 -6 6 -1 11 2 17 5 13 3 -3 4 -12 1 -19z m-10 -40
c-3 -8 -6 -5 -6 6 -1 11 2 17 5 13 3 -3 4 -12 1 -19z m-10 -40 c-3 -8 -6 -5
-6 6 -1 11 2 17 5 13 3 -3 4 -12 1 -19z m-6 -41 c-10 -9 -11 -8 -5 6 3 10 9
15 12 12 3 -3 0 -11 -7 -18z m-4119 -339 c-1 -156 -4 -288 -6 -294 -2 -6 -31
-26 -63 -44 -78 -44 -90 -51 -303 -175 -102 -59 -200 -116 -217 -126 -18 -10
-119 -69 -225 -130 -106 -62 -197 -112 -203 -112 -5 0 -126 67 -268 149 -142
82 -275 158 -295 170 -160 90 -307 172 -362 202 -36 19 -72 40 -80 46 -13 9
-15 49 -15 281 1 149 -2 278 -7 287 -8 17 45 18 1019 21 565 1 1028 3 1028 5
0 1 -1 -125 -3 -280z m-3175 266 c-3 -3 -12 -4 -19 -1 -8 3 -5 6 6 6 11 1 17
-2 13 -5z m80 0 c-3 -3 -12 -4 -19 -1 -8 3 -5 6 6 6 11 1 17 -2 13 -5z m80 0
c-3 -3 -12 -4 -19 -1 -8 3 -5 6 6 6 11 1 17 -2 13 -5z m80 0 c-3 -3 -12 -4
-19 -1 -8 3 -5 6 6 6 11 1 17 -2 13 -5z m80 0 c-3 -3 -12 -4 -19 -1 -8 3 -5 6
6 6 11 1 17 -2 13 -5z m80 0 c-3 -3 -12 -4 -19 -1 -8 3 -5 6 6 6 11 1 17 -2
13 -5z m80 0 c-3 -3 -12 -4 -19 -1 -8 3 -5 6 6 6 11 1 17 -2 13 -5z m80 0 c-3
-3 -12 -4 -19 -1 -8 3 -5 6 6 6 11 1 17 -2 13 -5z m80 0 c-3 -3 -12 -4 -19 -1
-8 3 -5 6 6 6 11 1 17 -2 13 -5z m80 0 c-3 -3 -12 -4 -19 -1 -8 3 -5 6 6 6 11
1 17 -2 13 -5z m80 0 c-3 -3 -12 -4 -19 -1 -8 3 -5 6 6 6 11 1 17 -2 13 -5z
m80 0 c-3 -3 -12 -4 -19 -1 -8 3 -5 6 6 6 11 1 17 -2 13 -5z m80 0 c-3 -3 -12
-4 -19 -1 -8 3 -5 6 6 6 11 1 17 -2 13 -5z m120 0 c-3 -3 -12 -4 -19 -1 -8 3
-5 6 6 6 11 1 17 -2 13 -5z"/>
<path d="M8790 29264 c-291 -57 -519 -334 -524 -639 -3 -157 47 -285 154 -394
52 -54 171 -138 225 -160 5 -2 38 -22 73 -43 34 -21 64 -38 66 -38 3 0 322
-184 346 -200 8 -6 21 -13 29 -17 8 -4 75 -42 149 -85 74 -43 136 -78 138 -78
2 0 27 -15 56 -34 29 -18 77 -46 106 -62 29 -16 61 -33 70 -39 258 -150 486
-282 529 -306 21 -12 198 -114 393 -227 389 -225 450 -256 543 -275 309 -65
632 167 707 508 51 228 -33 452 -220 587 -19 14 -294 175 -610 358 -316 182
-606 350 -645 373 -38 23 -79 47 -90 53 -11 6 -78 45 -150 86 -71 42 -146 85
-165 96 -19 10 -118 68 -220 127 -102 59 -203 117 -225 130 -22 12 -106 61
-187 109 -81 47 -150 86 -154 86 -4 0 -15 6 -23 14 -33 30 -171 67 -260 71
-47 2 -97 1 -111 -1z"/>
<path d="M31240 29256 c-30 -7 -80 -24 -110 -37 -49 -23 -520 -290 -545 -309
-5 -4 -28 -18 -50 -30 -22 -13 -58 -33 -81 -46 -22 -12 -151 -87 -285 -165
-134 -78 -260 -150 -279 -161 -48 -28 -310 -180 -335 -195 -11 -7 -26 -15 -34
-19 -8 -4 -62 -35 -120 -69 -58 -33 -198 -114 -311 -180 -477 -276 -492 -285
-565 -359 -109 -110 -158 -231 -156 -387 2 -267 174 -514 426 -614 59 -24 85
-28 170 -29 55 0 114 3 131 7 48 11 116 36 131 48 7 6 13 9 13 6 0 -4 51 23
113 60 61 36 126 73 142 83 169 96 463 266 555 320 63 37 122 70 130 73 8 4
29 16 45 26 36 22 399 232 463 268 25 14 69 39 96 56 28 16 67 39 86 50 19 10
107 61 195 112 88 51 264 152 390 225 315 181 361 217 438 343 52 85 69 145
72 258 9 295 -181 569 -455 654 -69 21 -198 26 -270 11z"/>
<path d="M7052 22768 c-408 -45 -632 -493 -450 -898 67 -149 208 -265 372
-306 66 -17 167 -18 1541 -18 1369 1 1474 2 1535 18 265 72 428 299 428 596 0
319 -196 564 -485 606 -63 9 -2859 11 -2941 2z"/>
<path d="M30270 22768 c-139 -14 -278 -82 -361 -177 -68 -77 -124 -192 -145
-301 -9 -46 -10 -215 -1 -262 34 -183 156 -349 309 -421 139 -65 51 -62 1638
-61 795 0 1468 3 1495 7 244 31 430 223 482 497 16 86 4 236 -27 324 -42 122
-110 219 -201 288 -64 48 -113 70 -204 93 -65 17 -164 18 -1495 19 -784 1
-1454 -2 -1490 -6z"/>
<path d="M11124 17645 c-77 -18 -134 -47 -449 -230 -159 -92 -310 -179 -335
-193 -55 -31 -401 -232 -450 -261 -19 -11 -42 -24 -50 -28 -8 -4 -123 -69
-254 -146 -132 -76 -258 -149 -280 -161 -89 -51 -342 -196 -356 -205 -16 -11
-271 -158 -353 -204 -227 -128 -330 -290 -330 -517 0 -180 66 -333 203 -470
135 -136 262 -187 435 -177 78 4 89 6 150 25 34 11 113 47 135 62 26 17 242
140 247 140 2 0 16 8 31 19 15 10 182 108 372 216 190 109 426 246 525 303 99
57 200 116 225 130 164 92 640 368 662 383 15 11 29 19 32 19 12 0 326 187
366 218 251 197 286 541 85 827 -144 205 -383 302 -611 250z"/>
</g>
</svg>
